<?xml version="1.0" encoding="UTF-8"?>
<mxfile host="65bd71144e">
    <diagram id="h7VEV2zOZHmnTLsKFh1g" name="Page-1">
        <mxGraphModel dx="1422" dy="794" grid="1" gridSize="10" guides="1" tooltips="1" connect="1" arrows="1" fold="1" page="1" pageScale="1" pageWidth="1169" pageHeight="827" math="0" shadow="0">
            <root>
                <mxCell id="0"/>
                <mxCell id="1" parent="0"/>
                <!-- Frontend Layer -->
                <mxCell id="2" value="Frontend Layer" style="swimlane;startSize=30;fillColor=#e1d5e7;strokeColor=#9673a6;" vertex="1" parent="1">
                    <mxGeometry x="50" y="50" width="1070" height="200" as="geometry"/>
                </mxCell>
                <mxCell id="3" value="Next.js 15 Application" style="rounded=1;whiteSpace=wrap;html=1;fillColor=#dae8fc;strokeColor=#6c8ebf;" vertex="1" parent="2">
                    <mxGeometry x="20" y="50" width="200" height="60" as="geometry"/>
                </mxCell>
                <mxCell id="4" value="React 19 Components" style="rounded=1;whiteSpace=wrap;html=1;fillColor=#d5e8d4;strokeColor=#82b366;" vertex="1" parent="2">
                    <mxGeometry x="240" y="50" width="180" height="60" as="geometry"/>
                </mxCell>
                <mxCell id="5" value="TypeScript Engine" style="rounded=1;whiteSpace=wrap;html=1;fillColor=#fff2cc;strokeColor=#d6b656;" vertex="1" parent="2">
                    <mxGeometry x="440" y="50" width="160" height="60" as="geometry"/>
                </mxCell>
                <mxCell id="6" value="Tailwind CSS" style="rounded=1;whiteSpace=wrap;html=1;fillColor=#f8cecc;strokeColor=#b85450;" vertex="1" parent="2">
                    <mxGeometry x="620" y="50" width="120" height="60" as="geometry"/>
                </mxCell>
                <mxCell id="7" value="UI/UX Layer" style="rounded=1;whiteSpace=wrap;html=1;fillColor=#e1d5e7;strokeColor=#9673a6;" vertex="1" parent="2">
                    <mxGeometry x="760" y="50" width="120" height="60" as="geometry"/>
                </mxCell>
                <mxCell id="8" value="Animation Engine" style="rounded=1;whiteSpace=wrap;html=1;fillColor=#ffcd28;strokeColor=#d79b00;" vertex="1" parent="2">
                    <mxGeometry x="900" y="50" width="150" height="60" as="geometry"/>
                </mxCell>
                
                <!-- Navigation & Routing -->
                <mxCell id="9" value="Navigation Components" style="rounded=1;whiteSpace=wrap;html=1;fillColor=#dae8fc;strokeColor=#6c8ebf;" vertex="1" parent="2">
                    <mxGeometry x="20" y="130" width="160" height="40" as="geometry"/>
                </mxCell>
                <mxCell id="10" value="Dynamic Routing" style="rounded=1;whiteSpace=wrap;html=1;fillColor=#d5e8d4;strokeColor=#82b366;" vertex="1" parent="2">
                    <mxGeometry x="200" y="130" width="140" height="40" as="geometry"/>
                </mxCell>
                <mxCell id="11" value="Theme Toggle" style="rounded=1;whiteSpace=wrap;html=1;fillColor=#fff2cc;strokeColor=#d6b656;" vertex="1" parent="2">
                    <mxGeometry x="360" y="130" width="120" height="40" as="geometry"/>
                </mxCell>
                <mxCell id="12" value="Responsive Design" style="rounded=1;whiteSpace=wrap;html=1;fillColor=#f8cecc;strokeColor=#b85450;" vertex="1" parent="2">
                    <mxGeometry x="500" y="130" width="140" height="40" as="geometry"/>
                </mxCell>
                <mxCell id="13" value="Mobile Optimization" style="rounded=1;whiteSpace=wrap;html=1;fillColor=#e1d5e7;strokeColor=#9673a6;" vertex="1" parent="2">
                    <mxGeometry x="660" y="130" width="150" height="40" as="geometry"/>
                </mxCell>
                <mxCell id="14" value="Performance Monitoring" style="rounded=1;whiteSpace=wrap;html=1;fillColor=#ffcd28;strokeColor=#d79b00;" vertex="1" parent="2">
                    <mxGeometry x="830" y="130" width="170" height="40" as="geometry"/>
                </mxCell>

                <!-- Algorithm Visualization Layer -->
                <mxCell id="15" value="Algorithm Visualization Layer" style="swimlane;startSize=30;fillColor=#d5e8d4;strokeColor=#82b366;" vertex="1" parent="1">
                    <mxGeometry x="50" y="270" width="1070" height="200" as="geometry"/>
                </mxCell>
                
                <!-- Sorting Algorithms -->
                <mxCell id="16" value="Sorting Visualizers" style="rounded=1;whiteSpace=wrap;html=1;fillColor=#dae8fc;strokeColor=#6c8ebf;" vertex="1" parent="15">
                    <mxGeometry x="20" y="50" width="150" height="60" as="geometry"/>
                </mxCell>
                <mxCell id="17" value="• Quick Sort&#10;• Merge Sort&#10;• Bubble Sort&#10;• Heap Sort" style="text;html=1;strokeColor=none;fillColor=none;align=left;verticalAlign=middle;whiteSpace=wrap;rounded=0;" vertex="1" parent="15">
                    <mxGeometry x="20" y="120" width="150" height="60" as="geometry"/>
                </mxCell>
                
                <!-- Search Algorithms -->
                <mxCell id="18" value="Search Visualizers" style="rounded=1;whiteSpace=wrap;html=1;fillColor=#fff2cc;strokeColor=#d6b656;" vertex="1" parent="15">
                    <mxGeometry x="190" y="50" width="150" height="60" as="geometry"/>
                </mxCell>
                <mxCell id="19" value="• Binary Search&#10;• Linear Search&#10;• DFS/BFS&#10;• A* Algorithm" style="text;html=1;strokeColor=none;fillColor=none;align=left;verticalAlign=middle;whiteSpace=wrap;rounded=0;" vertex="1" parent="15">
                    <mxGeometry x="190" y="120" width="150" height="60" as="geometry"/>
                </mxCell>
                
                <!-- Data Structures -->
                <mxCell id="20" value="Data Structure Visualizers" style="rounded=1;whiteSpace=wrap;html=1;fillColor=#f8cecc;strokeColor=#b85450;" vertex="1" parent="15">
                    <mxGeometry x="360" y="50" width="180" height="60" as="geometry"/>
                </mxCell>
                <mxCell id="21" value="• Binary Tree&#10;• AVL Tree&#10;• Linked List&#10;• Stack & Queue" style="text;html=1;strokeColor=none;fillColor=none;align=left;verticalAlign=middle;whiteSpace=wrap;rounded=0;" vertex="1" parent="15">
                    <mxGeometry x="360" y="120" width="180" height="60" as="geometry"/>
                </mxCell>
                
                <!-- Graph Algorithms -->
                <mxCell id="22" value="Graph Visualizers" style="rounded=1;whiteSpace=wrap;html=1;fillColor=#e1d5e7;strokeColor=#9673a6;" vertex="1" parent="15">
                    <mxGeometry x="560" y="50" width="150" height="60" as="geometry"/>
                </mxCell>
                <mxCell id="23" value="• Dijkstra&#10;• Pathfinding&#10;• MST Algorithms&#10;• Network Flow" style="text;html=1;strokeColor=none;fillColor=none;align=left;verticalAlign=middle;whiteSpace=wrap;rounded=0;" vertex="1" parent="15">
                    <mxGeometry x="560" y="120" width="150" height="60" as="geometry"/>
                </mxCell>
                
                <!-- Advanced Algorithms -->
                <mxCell id="24" value="Advanced Algorithms" style="rounded=1;whiteSpace=wrap;html=1;fillColor=#ffcd28;strokeColor=#d79b00;" vertex="1" parent="15">
                    <mxGeometry x="730" y="50" width="160" height="60" as="geometry"/>
                </mxCell>
                <mxCell id="25" value="• Huffman Coding&#10;• Polynomial Operations&#10;• Dynamic Programming&#10;• Greedy Algorithms" style="text;html=1;strokeColor=none;fillColor=none;align=left;verticalAlign=middle;whiteSpace=wrap;rounded=0;" vertex="1" parent="15">
                    <mxGeometry x="730" y="120" width="160" height="60" as="geometry"/>
                </mxCell>
                
                <!-- Interactive Features -->
                <mxCell id="26" value="Interactive Controls" style="rounded=1;whiteSpace=wrap;html=1;fillColor=#d4e8fc;strokeColor=#6c8ebf;" vertex="1" parent="15">
                    <mxGeometry x="910" y="50" width="140" height="60" as="geometry"/>
                </mxCell>
                <mxCell id="27" value="• Speed Control&#10;• Step-by-Step&#10;• Reset Function&#10;• Custom Input" style="text;html=1;strokeColor=none;fillColor=none;align=left;verticalAlign=middle;whiteSpace=wrap;rounded=0;" vertex="1" parent="15">
                    <mxGeometry x="910" y="120" width="140" height="60" as="geometry"/>
                </mxCell>

                <!-- Backend Services Layer -->
                <mxCell id="28" value="Backend Services Layer" style="swimlane;startSize=30;fillColor=#fff2cc;strokeColor=#d6b656;" vertex="1" parent="1">
                    <mxGeometry x="50" y="490" width="1070" height="180" as="geometry"/>
                </mxCell>
                
                <mxCell id="29" value="API Routes (Next.js)" style="rounded=1;whiteSpace=wrap;html=1;fillColor=#dae8fc;strokeColor=#6c8ebf;" vertex="1" parent="28">
                    <mxGeometry x="20" y="50" width="150" height="50" as="geometry"/>
                </mxCell>
                <mxCell id="30" value="Authentication System" style="rounded=1;whiteSpace=wrap;html=1;fillColor=#d5e8d4;strokeColor=#82b366;" vertex="1" parent="28">
                    <mxGeometry x="190" y="50" width="150" height="50" as="geometry"/>
                </mxCell>
                <mxCell id="31" value="User Management" style="rounded=1;whiteSpace=wrap;html=1;fillColor=#f8cecc;strokeColor=#b85450;" vertex="1" parent="28">
                    <mxGeometry x="360" y="50" width="140" height="50" as="geometry"/>
                </mxCell>
                <mxCell id="32" value="Progress Tracking" style="rounded=1;whiteSpace=wrap;html=1;fillColor=#e1d5e7;strokeColor=#9673a6;" vertex="1" parent="28">
                    <mxGeometry x="520" y="50" width="140" height="50" as="geometry"/>
                </mxCell>
                <mxCell id="33" value="Community Features" style="rounded=1;whiteSpace=wrap;html=1;fillColor=#ffcd28;strokeColor=#d79b00;" vertex="1" parent="28">
                    <mxGeometry x="680" y="50" width="150" height="50" as="geometry"/>
                </mxCell>
                <mxCell id="34" value="AI Assistant API" style="rounded=1;whiteSpace=wrap;html=1;fillColor=#ffe6cc;strokeColor=#d79b00;" vertex="1" parent="28">
                    <mxGeometry x="850" y="50" width="140" height="50" as="geometry"/>
                </mxCell>
                
                <!-- Additional Services -->
                <mxCell id="35" value="Analytics Service" style="rounded=1;whiteSpace=wrap;html=1;fillColor=#dae8fc;strokeColor=#6c8ebf;" vertex="1" parent="28">
                    <mxGeometry x="20" y="110" width="120" height="40" as="geometry"/>
                </mxCell>
                <mxCell id="36" value="Performance Metrics" style="rounded=1;whiteSpace=wrap;html=1;fillColor=#d5e8d4;strokeColor=#82b366;" vertex="1" parent="28">
                    <mxGeometry x="160" y="110" width="130" height="40" as="geometry"/>
                </mxCell>
                <mxCell id="37" value="Content Management" style="rounded=1;whiteSpace=wrap;html=1;fillColor=#f8cecc;strokeColor=#b85450;" vertex="1" parent="28">
                    <mxGeometry x="310" y="110" width="140" height="40" as="geometry"/>
                </mxCell>
                <mxCell id="38" value="Quiz System" style="rounded=1;whiteSpace=wrap;html=1;fillColor=#e1d5e7;strokeColor=#9673a6;" vertex="1" parent="28">
                    <mxGeometry x="470" y="110" width="110" height="40" as="geometry"/>
                </mxCell>
                <mxCell id="39" value="Discussion Forums" style="rounded=1;whiteSpace=wrap;html=1;fillColor=#ffcd28;strokeColor=#d79b00;" vertex="1" parent="28">
                    <mxGeometry x="600" y="110" width="130" height="40" as="geometry"/>
                </mxCell>
                <mxCell id="40" value="Notification System" style="rounded=1;whiteSpace=wrap;html=1;fillColor=#ffe6cc;strokeColor=#d79b00;" vertex="1" parent="28">
                    <mxGeometry x="750" y="110" width="130" height="40" as="geometry"/>
                </mxCell>
                <mxCell id="41" value="Email Service" style="rounded=1;whiteSpace=wrap;html=1;fillColor=#f5f5f5;strokeColor=#666666;" vertex="1" parent="28">
                    <mxGeometry x="900" y="110" width="100" height="40" as="geometry"/>
                </mxCell>

                <!-- Database Layer -->
                <mxCell id="42" value="Database & Storage Layer" style="swimlane;startSize=30;fillColor=#f8cecc;strokeColor=#b85450;" vertex="1" parent="1">
                    <mxGeometry x="50" y="690" width="1070" height="120" as="geometry"/>
                </mxCell>
                
                <mxCell id="43" value="PostgreSQL Database" style="rounded=1;whiteSpace=wrap;html=1;fillColor=#dae8fc;strokeColor=#6c8ebf;" vertex="1" parent="42">
                    <mxGeometry x="50" y="50" width="150" height="50" as="geometry"/>
                </mxCell>
                <mxCell id="44" value="Prisma ORM" style="rounded=1;whiteSpace=wrap;html=1;fillColor=#d5e8d4;strokeColor=#82b366;" vertex="1" parent="42">
                    <mxGeometry x="220" y="50" width="120" height="50" as="geometry"/>
                </mxCell>
                <mxCell id="45" value="Redis Cache" style="rounded=1;whiteSpace=wrap;html=1;fillColor=#fff2cc;strokeColor=#d6b656;" vertex="1" parent="42">
                    <mxGeometry x="360" y="50" width="120" height="50" as="geometry"/>
                </mxCell>
                <mxCell id="46" value="File Storage" style="rounded=1;whiteSpace=wrap;html=1;fillColor=#e1d5e7;strokeColor=#9673a6;" vertex="1" parent="42">
                    <mxGeometry x="500" y="50" width="120" height="50" as="geometry"/>
                </mxCell>
                <mxCell id="47" value="Session Storage" style="rounded=1;whiteSpace=wrap;html=1;fillColor=#ffcd28;strokeColor=#d79b00;" vertex="1" parent="42">
                    <mxGeometry x="640" y="50" width="130" height="50" as="geometry"/>
                </mxCell>
                <mxCell id="48" value="Backup System" style="rounded=1;whiteSpace=wrap;html=1;fillColor=#ffe6cc;strokeColor=#d79b00;" vertex="1" parent="42">
                    <mxGeometry x="790" y="50" width="120" height="50" as="geometry"/>
                </mxCell>
                <mxCell id="49" value="Migration Scripts" style="rounded=1;whiteSpace=wrap;html=1;fillColor=#f5f5f5;strokeColor=#666666;" vertex="1" parent="42">
                    <mxGeometry x="930" y="50" width="120" height="50" as="geometry"/>
                </mxCell>

                <!-- Connections -->
                <mxCell id="50" value="" style="endArrow=classic;html=1;rounded=0;entryX=0.5;entryY=0;entryDx=0;entryDy=0;exitX=0.5;exitY=1;exitDx=0;exitDy=0;" edge="1" parent="1" source="2" target="15">
                    <mxGeometry width="50" height="50" relative="1" as="geometry">
                        <mxPoint x="560" y="400" as="sourcePoint"/>
                        <mxPoint x="610" y="350" as="targetPoint"/>
                    </mxGeometry>
                </mxCell>
                <mxCell id="51" value="" style="endArrow=classic;html=1;rounded=0;entryX=0.5;entryY=0;entryDx=0;entryDy=0;exitX=0.5;exitY=1;exitDx=0;exitDy=0;" edge="1" parent="1" source="15" target="28">
                    <mxGeometry width="50" height="50" relative="1" as="geometry">
                        <mxPoint x="575" y="260" as="sourcePoint"/>
                        <mxPoint x="575" y="280" as="targetPoint"/>
                    </mxGeometry>
                </mxCell>
                <mxCell id="52" value="" style="endArrow=classic;html=1;rounded=0;entryX=0.5;entryY=0;entryDx=0;entryDy=0;exitX=0.5;exitY=1;exitDx=0;exitDy=0;" edge="1" parent="1" source="28" target="42">
                    <mxGeometry width="50" height="50" relative="1" as="geometry">
                        <mxPoint x="585" y="480" as="sourcePoint"/>
                        <mxPoint x="585" y="500" as="targetPoint"/>
                    </mxGeometry>
                </mxCell>
                
                <!-- Labels for connections -->
                <mxCell id="53" value="User Interactions" style="text;html=1;strokeColor=none;fillColor=none;align=center;verticalAlign=middle;whiteSpace=wrap;rounded=0;" vertex="1" parent="1">
                    <mxGeometry x="580" y="255" width="90" height="15" as="geometry"/>
                </mxCell>
                <mxCell id="54" value="API Calls" style="text;html=1;strokeColor=none;fillColor=none;align=center;verticalAlign=middle;whiteSpace=wrap;rounded=0;" vertex="1" parent="1">
                    <mxGeometry x="580" y="475" width="60" height="15" as="geometry"/>
                </mxCell>
                <mxCell id="55" value="Data Persistence" style="text;html=1;strokeColor=none;fillColor=none;align=center;verticalAlign=middle;whiteSpace=wrap;rounded=0;" vertex="1" parent="1">
                    <mxGeometry x="570" y="675" width="90" height="15" as="geometry"/>
                </mxCell>
            </root>
        </mxGraphModel>
    </diagram>
</mxfile>
